<?xml version="1.0" encoding="UTF-8"?>
<svg width="38px" height="40px" viewBox="0 0 38 40" version="1.1" xmlns="http://www.w3.org/2000/svg" xmlns:xlink="http://www.w3.org/1999/xlink">
    <title>Group 8</title>
    <g id="Page-1" stroke="none" stroke-width="1" fill="none" fill-rule="evenodd">
        <g id="Home-Page---Version-2-Copy-39" transform="translate(-963.000000, -730.000000)" fill="#313FFA">
            <g id="Group-12-Copy" transform="translate(954.000000, 722.498021)">
                <g id="Group-9" transform="translate(9.000000, 8.000000)">
                    <g id="Group-8" transform="translate(0.000000, 0.000000)">
                        <path d="M19.102259,29.3290345 C21.5310643,29.3290345 23.5,31.2979702 23.5,33.7267755 C23.5,36.1555807 21.5310643,38.1245164 19.102259,38.1245164 C16.6734538,38.1245164 14.7045181,36.1555807 14.7045181,33.7267755 C14.7045181,31.2979702 16.6734538,29.3290345 19.102259,29.3290345 Z M5.90278618,26.522485 C7.62021086,24.8050603 10.4047064,24.8050603 12.1221311,26.522485 C13.8395558,28.2399097 13.8395558,31.0244053 12.1221311,32.7418299 C10.4047064,34.4592546 7.62021086,34.4592546 5.90278618,32.7418299 C4.1853615,31.0244053 4.1853615,28.2399097 5.90278618,26.522485 Z M26.022485,26.3778689 C27.7399097,24.6604442 30.5244053,24.6604442 32.2418299,26.3778689 C33.9592546,28.0952936 33.9592546,30.8797891 32.2418299,32.5972138 C30.5244053,34.3146385 27.7399097,34.3146385 26.022485,32.5972138 C24.3050603,30.8797891 24.3050603,28.0952936 26.022485,26.3778689 Z M4.39774097,15 C6.82654624,15 8.79548194,16.9689357 8.79548194,19.397741 C8.79548194,21.8265462 6.82654624,23.7954819 4.39774097,23.7954819 C1.9689357,23.7954819 0,21.8265462 0,19.397741 C0,16.9689357 1.9689357,15 4.39774097,15 Z M33.2267755,15 C35.6555807,15 37.6245164,16.9689357 37.6245164,19.397741 C37.6245164,21.8265462 35.6555807,23.7954819 33.2267755,23.7954819 C30.7979702,23.7954819 28.8290345,21.8265462 28.8290345,19.397741 C28.8290345,16.9689357 30.7979702,15 33.2267755,15 Z M26.287992,6.13727921 C28.0054167,4.41985454 30.7899122,4.41985454 32.5073369,6.13727921 C34.2247616,7.85470389 34.2247616,10.6391995 32.5073369,12.3566241 C30.7899122,14.0740488 28.0054167,14.0740488 26.287992,12.3566241 C24.5705673,10.6391995 24.5705673,7.85470389 26.287992,6.13727921 Z M5.63727921,5.9926631 C7.35470389,4.27523843 10.1391995,4.27523843 11.8566241,5.9926631 C13.5740488,7.71008778 13.5740488,10.4945833 11.8566241,12.212008 C10.1391995,13.9294327 7.35470389,13.9294327 5.63727921,12.212008 C3.91985454,10.4945833 3.91985454,7.71008778 5.63727921,5.9926631 Z M19.102259,0.5 C21.5310643,0.5 23.5,2.4689357 23.5,4.89774097 C23.5,7.32654624 21.5310643,9.29548194 19.102259,9.29548194 C16.6734538,9.29548194 14.7045181,7.32654624 14.7045181,4.89774097 C14.7045181,2.4689357 16.6734538,0.5 19.102259,0.5 Z" id="Combined-Shape"></path>
                    </g>
                </g>
            </g>
        </g>
    </g>
</svg>