<svg width="223" height="223" viewBox="0 0 223 223" fill="none" xmlns="http://www.w3.org/2000/svg">
<g filter="url(#filter0_d)">
<rect x="50" y="10" width="123" height="123" rx="61.5" fill="url(#paint0_linear)"/>
</g>
<path fill-rule="evenodd" clip-rule="evenodd" d="M83.3425 96.3348V92.4983C85.6161 92.4983 87.378 91.8346 88.814 90.7108C90.2822 89.5617 91.5065 87.8535 92.5273 85.6341C94.5901 81.1495 95.6218 75.0424 96.4064 68.6463C96.6007 67.0626 96.78 65.4566 96.9581 63.8612C97.4823 59.1654 97.9963 54.5615 98.8518 50.8882C99.4265 48.4209 100.201 46.1417 101.379 44.4439C102.612 42.6674 104.374 41.4254 106.751 41.4254C109.546 41.4254 111.422 43.1312 112.607 45.3488C113.752 47.4929 114.414 50.3682 114.853 53.4708C115.299 56.6108 115.541 60.1871 115.747 63.8334C115.794 64.6796 115.84 65.5293 115.886 66.3799C116.009 68.654 116.131 70.9341 116.293 73.1679C119.589 73.5148 121.921 74.8238 123.725 76.7173C125.283 78.3529 126.442 80.456 127.497 82.3718C127.76 82.8499 128.017 83.3163 128.272 83.7609C129.619 86.1093 131.079 88.2207 133.432 89.7893C135.769 91.3475 139.188 92.4983 144.657 92.4983V96.5746H124.373C122.159 96.5746 120.276 95.8406 118.743 94.5223C117.251 93.2384 116.172 91.4735 115.365 89.51C113.954 86.0749 113.225 81.6427 112.771 77.0185C110.566 77.3121 109.232 78.1911 108.199 79.323C107.511 80.0776 106.912 80.9961 106.293 82.087C105.988 82.6255 105.689 83.1854 105.371 83.7806L105.361 83.799C105.043 84.3939 104.707 85.0216 104.349 85.6528C102.908 88.1938 101.023 90.9424 97.7086 93.0099C94.4003 95.0736 89.8722 96.3348 83.3425 96.3348ZM116.63 77.0853C117.075 81.4193 117.751 85.2302 118.909 88.0509C119.58 89.6845 120.363 90.8576 121.241 91.6123C122.078 92.3327 123.075 92.7381 124.373 92.7381H130.951C128.064 90.7013 126.33 88.078 124.949 85.6718C124.61 85.0817 124.299 84.5192 124.003 83.9835C122.98 82.1354 122.134 80.6063 120.952 79.3654C119.92 78.2822 118.622 77.434 116.63 77.0853ZM112.453 73.1926C109.291 73.5736 107.075 74.8675 105.37 76.7354C104.397 77.8016 103.633 79.0074 102.961 80.1925C102.631 80.7737 102.313 81.3704 102.002 81.9513L101.982 81.9893C101.661 82.5894 101.347 83.1755 101.017 83.7583C99.704 86.0728 98.2056 88.1797 95.682 89.7538C95.2017 90.0534 94.6768 90.3382 94.1002 90.603C94.8284 89.5673 95.4584 88.4341 96.0082 87.2388C98.3502 82.1472 99.4284 75.486 100.21 69.1139C100.42 67.4026 100.608 65.7152 100.792 64.0728C101.308 59.4548 101.784 55.1931 102.584 51.7594C103.124 49.4386 103.767 47.7277 104.527 46.6325C105.232 45.6159 105.928 45.2619 106.751 45.2619C107.656 45.2619 108.45 45.7029 109.227 47.1578C110.044 48.6862 110.634 51.0092 111.059 54.0098C111.479 56.9728 111.715 60.4045 111.92 64.0499C111.967 64.8735 112.012 65.7084 112.057 66.5499C112.176 68.7473 112.296 70.9894 112.453 73.1926Z" fill="white"/>
<path fill-rule="evenodd" clip-rule="evenodd" d="M85.6135 71.158H83.3425V67.3215H85.6135V71.158ZM92.4262 71.158H87.8844V67.3215H92.4262V71.158ZM99.239 71.158H94.6972V67.3215H99.239V71.158ZM106.052 71.158H101.51V67.3215H106.052V71.158ZM112.865 71.158H108.323V67.3215H112.865V71.158ZM119.677 71.158H115.135V67.3215H119.677V71.158ZM126.49 71.158H121.948V67.3215H126.49V71.158ZM133.303 71.158H128.761V67.3215H133.303V71.158ZM140.116 71.158H135.574V67.3215H140.116V71.158ZM144.657 71.158H142.387V67.3215H144.657V71.158Z" fill="white"/>
<defs>
<filter id="filter0_d" x="0" y="0" width="223" height="223" filterUnits="userSpaceOnUse" color-interpolation-filters="sRGB">
<feFlood flood-opacity="0" result="BackgroundImageFix"/>
<feColorMatrix in="SourceAlpha" type="matrix" values="0 0 0 0 0 0 0 0 0 0 0 0 0 0 0 0 0 0 127 0"/>
<feOffset dy="40"/>
<feGaussianBlur stdDeviation="25"/>
<feColorMatrix type="matrix" values="0 0 0 0 0 0 0 0 0 0 0 0 0 0 0 0 0 0 0.25 0"/>
<feBlend mode="normal" in2="BackgroundImageFix" result="effect1_dropShadow"/>
<feBlend mode="normal" in="SourceGraphic" in2="effect1_dropShadow" result="shape"/>
</filter>
<linearGradient id="paint0_linear" x1="111.5" y1="10" x2="111.5" y2="133" gradientUnits="userSpaceOnUse">
<stop stop-color="#0085FF"/>
<stop offset="1" stop-color="#001BD2" stop-opacity="0.94"/>
</linearGradient>
</defs>
</svg>
