<svg width="54" height="54" viewBox="0 0 54 54" fill="none" xmlns="http://www.w3.org/2000/svg">
<rect x="1" y="1" width="52" height="52" rx="3" fill="#00FF19" fill-opacity="0.31"/>
<path fill-rule="evenodd" clip-rule="evenodd" d="M15 37.7812V36.2812C15.8899 36.2812 16.5796 36.0217 17.1416 35.5823C17.7163 35.1331 18.1955 34.4652 18.5951 33.5974C19.4025 31.844 19.8064 29.4562 20.1135 26.9554C20.1895 26.3362 20.2597 25.7083 20.3294 25.0845C20.5346 23.2486 20.7358 21.4485 21.0707 20.0123C21.2956 19.0476 21.5988 18.1565 22.0599 17.4927C22.5424 16.7981 23.2323 16.3125 24.1624 16.3125C25.2566 16.3125 25.991 16.9794 26.4546 17.8465C26.9028 18.6848 27.1619 19.809 27.3341 21.0221C27.5083 22.2498 27.6031 23.648 27.6836 25.0737C27.7023 25.4045 27.7202 25.7368 27.7382 26.0693C27.7862 26.9585 27.8343 27.8499 27.8975 28.7233C29.1877 28.859 30.1003 29.3707 30.8065 30.1111C31.4165 30.7506 31.8699 31.5729 32.2829 32.3219C32.386 32.5088 32.4865 32.6912 32.5864 32.865C33.1137 33.7832 33.6851 34.6087 34.6061 35.2221C35.5209 35.8313 36.8593 36.2812 39 36.2812V37.875H31.06C30.1935 37.875 29.4566 37.588 28.8567 37.0726C28.2724 36.5706 27.85 35.8806 27.5343 35.1128C26.982 33.7698 26.6966 32.0369 26.5191 30.2288C25.6559 30.3437 25.1338 30.6873 24.7295 31.1299C24.4599 31.4249 24.2257 31.784 23.9835 32.2106C23.8639 32.4211 23.7468 32.64 23.6223 32.8727L23.6184 32.8799C23.494 33.1125 23.3626 33.358 23.2225 33.6047C22.6583 34.5982 21.9206 35.6729 20.6232 36.4813C19.3282 37.2881 17.5558 37.7812 15 37.7812ZM28.0294 30.255C28.2035 31.9495 28.4681 33.4395 28.9216 34.5424C29.1843 35.1811 29.4907 35.6397 29.8342 35.9348C30.162 36.2165 30.552 36.375 31.06 36.375H33.6352C32.505 35.5786 31.826 34.5529 31.2857 33.6121C31.1532 33.3815 31.0313 33.1615 30.9153 32.9521C30.5151 32.2295 30.1839 31.6316 29.7211 31.1465C29.3171 30.7229 28.809 30.3913 28.0294 30.255ZM26.3944 28.733C25.1568 28.8819 24.2893 29.3878 23.6221 30.1181C23.2412 30.535 22.9423 31.0065 22.6791 31.4698C22.5501 31.6971 22.4252 31.9304 22.3038 32.1575L22.2958 32.1724C22.1703 32.407 22.0475 32.6362 21.9181 32.864C21.4042 33.7689 20.8177 34.5927 19.8299 35.2082C19.6419 35.3253 19.4364 35.4367 19.2108 35.5402C19.4958 35.1353 19.7424 34.6922 19.9576 34.2248C20.8743 32.2341 21.2963 29.6297 21.6023 27.1383C21.6845 26.4692 21.7583 25.8094 21.8301 25.1673C22.0321 23.3617 22.2184 21.6954 22.5315 20.3529C22.743 19.4455 22.9945 18.7766 23.2919 18.3484C23.568 17.9509 23.8405 17.8125 24.1624 17.8125C24.5168 17.8125 24.8277 17.9849 25.1318 18.5538C25.4513 19.1514 25.6825 20.0596 25.8489 21.2328C26.0133 22.3913 26.1055 23.733 26.186 25.1583C26.2042 25.4804 26.2218 25.8068 26.2396 26.1358C26.2859 26.9949 26.3332 27.8716 26.3944 28.733Z" fill="#060000"/>
<path fill-rule="evenodd" clip-rule="evenodd" d="M15.8889 27.9375H15V26.4375H15.8889V27.9375ZM18.5555 27.9375H16.7778V26.4375H18.5555V27.9375ZM21.2222 27.9375H19.4444V26.4375H21.2222V27.9375ZM23.8889 27.9375H22.1111V26.4375H23.8889V27.9375ZM26.5555 27.9375H24.7778V26.4375H26.5555V27.9375ZM29.2222 27.9375H27.4444V26.4375H29.2222V27.9375ZM31.8889 27.9375H30.1111V26.4375H31.8889V27.9375ZM34.5555 27.9375H32.7778V26.4375H34.5555V27.9375ZM37.2222 27.9375H35.4444V26.4375H37.2222V27.9375ZM39 27.9375H38.1111V26.4375H39V27.9375Z" fill="#060000"/>
<rect x="1" y="1" width="52" height="52" rx="3" stroke="black" stroke-width="2"/>
</svg>
