<svg width="600" height="600" viewBox="0 0 600 600" fill="none" xmlns="http://www.w3.org/2000/svg">
<rect width="600" height="600" fill="white"/>
<g filter="url(#filter0_d)">
<rect x="238" y="238" width="123" height="123" rx="61.5" fill="url(#paint0_linear)"/>
</g>
<path fill-rule="evenodd" clip-rule="evenodd" d="M271.343 324.335V320.498C273.616 320.498 275.378 319.835 276.814 318.711C278.282 317.562 279.506 315.854 280.527 313.634C282.59 309.15 283.622 303.042 284.406 296.646C284.601 295.063 284.78 293.457 284.958 291.861C285.482 287.165 285.996 282.562 286.852 278.888C287.426 276.421 288.201 274.142 289.379 272.444C290.612 270.667 292.374 269.425 294.751 269.425C297.546 269.425 299.422 271.131 300.607 273.349C301.752 275.493 302.414 278.368 302.853 281.471C303.299 284.611 303.541 288.187 303.747 291.833C303.794 292.68 303.84 293.529 303.886 294.38C304.009 296.654 304.131 298.934 304.293 301.168C307.589 301.515 309.921 302.824 311.725 304.717C313.283 306.353 314.442 308.456 315.497 310.372C315.76 310.85 316.017 311.316 316.272 311.761C317.619 314.109 319.079 316.221 321.432 317.789C323.769 319.347 327.188 320.498 332.657 320.498V324.575H312.373C310.159 324.575 308.276 323.841 306.743 322.522C305.251 321.238 304.172 319.474 303.365 317.51C301.954 314.075 301.225 309.643 300.771 305.018C298.566 305.312 297.232 306.191 296.199 307.323C295.511 308.078 294.912 308.996 294.293 310.087C293.988 310.626 293.689 311.185 293.371 311.781L293.361 311.799C293.043 312.394 292.707 313.022 292.349 313.653C290.908 316.194 289.023 318.942 285.709 321.01C282.4 323.074 277.872 324.335 271.343 324.335ZM304.63 305.085C305.075 309.419 305.751 313.23 306.909 316.051C307.58 317.684 308.363 318.858 309.241 319.612C310.078 320.333 311.075 320.738 312.373 320.738H318.951C316.064 318.701 314.33 316.078 312.949 313.672C312.61 313.082 312.299 312.519 312.003 311.984C310.98 310.135 310.134 308.606 308.952 307.365C307.92 306.282 306.622 305.434 304.63 305.085ZM300.453 301.193C297.291 301.574 295.075 302.867 293.37 304.735C292.397 305.802 291.633 307.007 290.961 308.192C290.631 308.774 290.313 309.37 290.002 309.951L289.982 309.989C289.661 310.589 289.347 311.176 289.017 311.758C287.704 314.073 286.206 316.18 283.682 317.754C283.202 318.053 282.677 318.338 282.1 318.603C282.828 317.567 283.458 316.434 284.008 315.239C286.35 310.147 287.428 303.486 288.21 297.114C288.42 295.403 288.608 293.715 288.792 292.073C289.308 287.455 289.784 283.193 290.584 279.759C291.124 277.439 291.767 275.728 292.527 274.633C293.232 273.616 293.928 273.262 294.751 273.262C295.656 273.262 296.45 273.703 297.227 275.158C298.044 276.686 298.634 279.009 299.059 282.01C299.479 284.973 299.715 288.404 299.92 292.05C299.967 292.874 300.012 293.708 300.057 294.55C300.176 296.747 300.296 298.989 300.453 301.193Z" fill="white"/>
<path fill-rule="evenodd" clip-rule="evenodd" d="M273.613 299.158H271.343V295.322H273.613V299.158ZM280.426 299.158H275.884V295.322H280.426V299.158ZM287.239 299.158H282.697V295.322H287.239V299.158ZM294.052 299.158H289.51V295.322H294.052V299.158ZM300.865 299.158H296.323V295.322H300.865V299.158ZM307.677 299.158H303.135V295.322H307.677V299.158ZM314.49 299.158H309.948V295.322H314.49V299.158ZM321.303 299.158H316.761V295.322H321.303V299.158ZM328.116 299.158H323.574V295.322H328.116V299.158ZM332.657 299.158H330.387V295.322H332.657V299.158Z" fill="white"/>
<defs>
<filter id="filter0_d" x="188" y="228" width="223" height="223" filterUnits="userSpaceOnUse" color-interpolation-filters="sRGB">
<feFlood flood-opacity="0" result="BackgroundImageFix"/>
<feColorMatrix in="SourceAlpha" type="matrix" values="0 0 0 0 0 0 0 0 0 0 0 0 0 0 0 0 0 0 127 0"/>
<feOffset dy="40"/>
<feGaussianBlur stdDeviation="25"/>
<feColorMatrix type="matrix" values="0 0 0 0 0 0 0 0 0 0 0 0 0 0 0 0 0 0 0.25 0"/>
<feBlend mode="normal" in2="BackgroundImageFix" result="effect1_dropShadow"/>
<feBlend mode="normal" in="SourceGraphic" in2="effect1_dropShadow" result="shape"/>
</filter>
<linearGradient id="paint0_linear" x1="299.5" y1="238" x2="299.5" y2="361" gradientUnits="userSpaceOnUse">
<stop stop-color="#0085FF"/>
<stop offset="1" stop-color="#001BD2" stop-opacity="0.94"/>
</linearGradient>
</defs>
</svg>
