<svg width="600" height="600" viewBox="0 0 600 600" fill="none" xmlns="http://www.w3.org/2000/svg">
<rect width="600" height="600" fill="white"/>
<g filter="url(#filter0_d)">
<rect x="150" y="150" width="300" height="300" rx="65" fill="url(#paint0_linear)"/>
</g>
<path fill-rule="evenodd" clip-rule="evenodd" d="M217 379.3V368.1C223.637 368.1 228.781 366.162 232.973 362.882C237.259 359.527 240.833 354.54 243.814 348.061C249.836 334.969 252.848 317.14 255.138 298.467C255.705 293.844 256.229 289.156 256.749 284.498C258.279 270.789 259.779 257.349 262.277 246.625C263.955 239.422 266.216 232.769 269.656 227.812C273.254 222.626 278.4 219 285.336 219C293.497 219 298.975 223.98 302.432 230.454C305.775 236.713 307.708 245.107 308.992 254.165C310.291 263.332 310.998 273.772 311.599 284.417C311.738 286.887 311.872 289.368 312.006 291.851C312.364 298.49 312.722 305.146 313.194 311.668C322.816 312.68 329.623 316.502 334.89 322.03C339.44 326.805 342.821 332.944 345.902 338.537C346.67 339.933 347.42 341.294 348.165 342.592C352.098 349.448 356.36 355.612 363.229 360.191C370.052 364.74 380.034 368.1 396 368.1V380H336.781C330.318 380 324.823 377.857 320.348 374.009C315.99 370.26 312.84 365.108 310.485 359.376C306.366 349.348 304.237 336.409 302.913 322.909C296.475 323.766 292.581 326.332 289.566 329.636C287.556 331.839 285.808 334.521 284.002 337.706C283.11 339.278 282.237 340.912 281.308 342.65L281.279 342.704C280.351 344.44 279.371 346.273 278.326 348.115C274.118 355.533 268.616 363.558 258.94 369.594C249.282 375.618 236.062 379.3 217 379.3ZM314.177 323.104C315.476 335.756 317.45 346.882 320.832 355.116C322.791 359.885 325.076 363.31 327.638 365.513C330.083 367.616 332.992 368.8 336.781 368.8H355.987C347.558 362.854 342.494 355.195 338.464 348.171C337.476 346.448 336.567 344.806 335.702 343.242C332.717 337.847 330.247 333.383 326.795 329.76C323.782 326.598 319.992 324.122 314.177 323.104ZM301.983 311.74C292.753 312.852 286.282 316.629 281.306 322.082C278.466 325.195 276.236 328.715 274.273 332.175C273.311 333.872 272.38 335.614 271.474 337.309L271.415 337.42C270.478 339.172 269.563 340.883 268.598 342.585C264.765 349.342 260.39 355.492 253.023 360.088C251.621 360.962 250.089 361.794 248.405 362.567C250.531 359.543 252.37 356.235 253.976 352.745C260.813 337.881 263.96 318.435 266.242 299.833C266.855 294.837 267.405 289.91 267.941 285.116C269.448 271.634 270.838 259.193 273.172 249.168C274.75 242.393 276.626 237.399 278.844 234.201C280.903 231.234 282.935 230.2 285.336 230.2C287.98 230.2 290.298 231.487 292.566 235.735C294.95 240.197 296.674 246.978 297.915 255.738C299.141 264.388 299.828 274.407 300.429 285.049C300.565 287.453 300.696 289.891 300.828 292.347C301.174 298.762 301.527 305.308 301.983 311.74Z" fill="white"/>
<path fill-rule="evenodd" clip-rule="evenodd" d="M223.63 305.8H217V294.6H223.63V305.8ZM243.519 305.8H230.259V294.6H243.519V305.8ZM263.407 305.8H250.148V294.6H263.407V305.8ZM283.296 305.8H270.037V294.6H283.296V305.8ZM303.185 305.8H289.926V294.6H303.185V305.8ZM323.074 305.8H309.815V294.6H323.074V305.8ZM342.963 305.8H329.704V294.6H342.963V305.8ZM362.852 305.8H349.593V294.6H362.852V305.8ZM382.741 305.8H369.481V294.6H382.741V305.8ZM396 305.8H389.37V294.6H396V305.8Z" fill="white"/>
<defs>
<filter id="filter0_d" x="100" y="140" width="400" height="400" filterUnits="userSpaceOnUse" color-interpolation-filters="sRGB">
<feFlood flood-opacity="0" result="BackgroundImageFix"/>
<feColorMatrix in="SourceAlpha" type="matrix" values="0 0 0 0 0 0 0 0 0 0 0 0 0 0 0 0 0 0 127 0"/>
<feOffset dy="40"/>
<feGaussianBlur stdDeviation="25"/>
<feColorMatrix type="matrix" values="0 0 0 0 0 0 0 0 0 0 0 0 0 0 0 0 0 0 0.25 0"/>
<feBlend mode="normal" in2="BackgroundImageFix" result="effect1_dropShadow"/>
<feBlend mode="normal" in="SourceGraphic" in2="effect1_dropShadow" result="shape"/>
</filter>
<linearGradient id="paint0_linear" x1="300" y1="150" x2="300" y2="450" gradientUnits="userSpaceOnUse">
<stop stop-color="#0085FF"/>
<stop offset="1" stop-color="#001BD2" stop-opacity="0.94"/>
</linearGradient>
</defs>
</svg>
