<svg width="2880" height="1620" viewBox="0 0 2880 1620" fill="none" xmlns="http://www.w3.org/2000/svg">
<rect width="2880" height="1620" fill="#110D26"/>
<path d="M732.52 1170.72C730.984 1170.72 729.64 1170.14 728.488 1168.99C727.336 1167.84 726.76 1166.5 726.76 1164.96C726.76 1163.62 727.24 1161.89 728.2 1159.78L750.376 1107.07L695.368 977.184C694.408 974.688 693.928 973.056 693.928 972.288C693.928 970.56 694.504 969.12 695.656 967.968C696.808 966.816 698.248 966.24 699.976 966.24H714.088C717.16 966.24 719.464 967.872 721 971.136L764.776 1075.97L809.704 971.136C811.24 967.872 813.64 966.24 816.904 966.24H830.44C832.168 966.24 833.608 966.816 834.76 967.968C835.912 969.12 836.488 970.464 836.488 972C836.488 972.576 836.008 974.304 835.048 977.184L753.256 1165.82C751.72 1169.09 749.32 1170.72 746.056 1170.72H732.52ZM875.586 1116C873.666 1116 872.034 1115.42 870.69 1114.27C869.538 1112.93 868.962 1111.3 868.962 1109.38V921.312C868.962 919.2 869.538 917.568 870.69 916.416C872.034 915.072 873.666 914.4 875.586 914.4H889.986C893.058 914.4 895.554 915.936 897.474 919.008L958.242 1035.36L1019.59 919.008C1019.97 917.856 1020.74 916.8 1021.89 915.84C1023.23 914.88 1024.87 914.4 1026.79 914.4H1040.9C1043.01 914.4 1044.64 915.072 1045.79 916.416C1047.14 917.568 1047.81 919.2 1047.81 921.312V1109.38C1047.81 1111.3 1047.14 1112.93 1045.79 1114.27C1044.45 1115.42 1042.82 1116 1040.9 1116H1026.79C1024.87 1116 1023.23 1115.42 1021.89 1114.27C1020.74 1112.93 1020.16 1111.3 1020.16 1109.38V967.68L972.066 1061.57C970.146 1065.6 967.074 1067.62 962.85 1067.62H953.922C949.698 1067.62 946.626 1065.6 944.706 1061.57L896.322 967.68V1109.38C896.322 1111.3 895.65 1112.93 894.306 1114.27C893.154 1115.42 891.618 1116 889.698 1116H875.586ZM1135.63 1118.88C1126.23 1118.88 1117.49 1116.96 1109.43 1113.12C1101.36 1109.28 1094.93 1104.1 1090.13 1097.57C1085.52 1090.85 1083.22 1083.46 1083.22 1075.39C1083.22 1062.72 1088.4 1052.35 1098.77 1044.29C1109.33 1036.03 1123.54 1030.66 1141.39 1028.16L1184.31 1022.11V1013.76C1184.31 994.176 1173.07 984.384 1150.61 984.384C1142.16 984.384 1135.25 986.208 1129.87 989.856C1124.5 993.312 1120.47 997.44 1117.78 1002.24C1117.2 1003.97 1116.43 1005.22 1115.47 1005.98C1114.71 1006.75 1113.55 1007.14 1112.02 1007.14H1099.63C1097.91 1007.14 1096.37 1006.56 1095.03 1005.41C1093.87 1004.06 1093.3 1002.53 1093.3 1000.8C1093.49 996.192 1095.6 991.008 1099.63 985.248C1103.86 979.296 1110.29 974.208 1118.93 969.984C1127.57 965.568 1138.23 963.36 1150.9 963.36C1172.4 963.36 1187.86 968.448 1197.27 978.624C1206.67 988.608 1211.38 1001.09 1211.38 1016.06V1109.38C1211.38 1111.3 1210.71 1112.93 1209.36 1114.27C1208.21 1115.42 1206.67 1116 1204.75 1116H1191.51C1189.59 1116 1187.95 1115.42 1186.61 1114.27C1185.46 1112.93 1184.88 1111.3 1184.88 1109.38V1096.99C1180.66 1103.14 1174.51 1108.32 1166.45 1112.54C1158.39 1116.77 1148.11 1118.88 1135.63 1118.88ZM1141.68 1097.28C1154.16 1097.28 1164.34 1093.25 1172.21 1085.18C1180.27 1076.93 1184.31 1065.12 1184.31 1049.76V1041.7L1150.9 1046.59C1137.27 1048.51 1126.99 1051.78 1120.08 1056.38C1113.17 1060.8 1109.71 1066.46 1109.71 1073.38C1109.71 1081.06 1112.88 1087.01 1119.22 1091.23C1125.55 1095.26 1133.04 1097.28 1141.68 1097.28ZM1259.4 1116C1257.48 1116 1255.85 1115.42 1254.51 1114.27C1253.36 1112.93 1252.78 1111.3 1252.78 1109.38V972.864C1252.78 970.944 1253.36 969.408 1254.51 968.256C1255.85 966.912 1257.48 966.24 1259.4 966.24H1272.94C1274.86 966.24 1276.4 966.912 1277.55 968.256C1278.89 969.408 1279.56 970.944 1279.56 972.864V985.536C1285.13 978.432 1291.66 972.96 1299.15 969.12C1306.83 965.28 1316.33 963.36 1327.66 963.36C1346.09 963.36 1360.4 969.312 1370.57 981.216C1380.94 992.928 1386.12 1008.58 1386.12 1028.16V1109.38C1386.12 1111.3 1385.45 1112.93 1384.11 1114.27C1382.96 1115.42 1381.42 1116 1379.5 1116H1365.1C1363.18 1116 1361.55 1115.42 1360.2 1114.27C1359.05 1112.93 1358.48 1111.3 1358.48 1109.38V1029.6C1358.48 1015.97 1355.12 1005.41 1348.4 997.92C1341.87 990.432 1332.36 986.688 1319.88 986.688C1307.79 986.688 1298.19 990.528 1291.08 998.208C1283.98 1005.7 1280.43 1016.16 1280.43 1029.6V1109.38C1280.43 1111.3 1279.76 1112.93 1278.41 1114.27C1277.26 1115.42 1275.72 1116 1273.8 1116H1259.4ZM1431.76 938.304C1429.84 938.304 1428.21 937.728 1426.86 936.576C1425.71 935.232 1425.13 933.6 1425.13 931.68V916.128C1425.13 914.208 1425.71 912.576 1426.86 911.232C1428.21 909.888 1429.84 909.216 1431.76 909.216H1449.9C1451.82 909.216 1453.45 909.888 1454.8 911.232C1456.14 912.576 1456.81 914.208 1456.81 916.128V931.68C1456.81 933.6 1456.14 935.232 1454.8 936.576C1453.45 937.728 1451.82 938.304 1449.9 938.304H1431.76ZM1434.06 1116C1432.14 1116 1430.51 1115.42 1429.17 1114.27C1428.01 1112.93 1427.44 1111.3 1427.44 1109.38V972.864C1427.44 970.944 1428.01 969.408 1429.17 968.256C1430.51 966.912 1432.14 966.24 1434.06 966.24H1447.89C1449.81 966.24 1451.34 966.912 1452.49 968.256C1453.84 969.408 1454.51 970.944 1454.51 972.864V1109.38C1454.51 1111.3 1453.84 1112.93 1452.49 1114.27C1451.34 1115.42 1449.81 1116 1447.89 1116H1434.06ZM1518.79 1116C1516.87 1116 1515.24 1115.42 1513.89 1114.27C1512.74 1112.93 1512.16 1111.3 1512.16 1109.38V989.28H1487.68C1485.76 989.28 1484.13 988.704 1482.79 987.552C1481.64 986.208 1481.06 984.576 1481.06 982.656V972.864C1481.06 970.944 1481.64 969.408 1482.79 968.256C1484.13 966.912 1485.76 966.24 1487.68 966.24H1512.16V951.84C1512.16 919.2 1528.68 902.88 1561.7 902.88H1578.98C1580.9 902.88 1582.44 903.552 1583.59 904.896C1584.93 906.048 1585.6 907.584 1585.6 909.504V919.296C1585.6 921.216 1584.93 922.848 1583.59 924.192C1582.44 925.344 1580.9 925.92 1578.98 925.92H1562.28C1553.64 925.92 1547.59 928.224 1544.13 932.832C1540.68 937.248 1538.95 944.064 1538.95 953.28V966.24H1576.1C1578.02 966.24 1579.56 966.912 1580.71 968.256C1582.05 969.408 1582.72 970.944 1582.72 972.864V982.656C1582.72 984.576 1582.05 986.208 1580.71 987.552C1579.56 988.704 1578.02 989.28 1576.1 989.28H1538.95V1109.38C1538.95 1111.3 1538.28 1112.93 1536.93 1114.27C1535.78 1115.42 1534.24 1116 1532.32 1116H1518.79ZM1666.53 1118.88C1645.41 1118.88 1629 1112.93 1617.28 1101.02C1605.76 1089.12 1599.62 1073.28 1598.85 1053.5L1598.56 1041.12L1598.85 1028.74C1599.62 1009.15 1605.86 993.408 1617.57 981.504C1629.28 969.408 1645.6 963.36 1666.53 963.36C1687.46 963.36 1703.78 969.408 1715.49 981.504C1727.2 993.408 1733.44 1009.15 1734.21 1028.74C1734.4 1030.85 1734.5 1034.98 1734.5 1041.12C1734.5 1047.26 1734.4 1051.39 1734.21 1053.5C1733.44 1073.28 1727.2 1089.12 1715.49 1101.02C1703.97 1112.93 1687.65 1118.88 1666.53 1118.88ZM1666.53 1096.7C1678.63 1096.7 1688.13 1092.86 1695.04 1085.18C1702.15 1077.5 1705.99 1066.46 1706.56 1052.06C1706.76 1050.14 1706.85 1046.5 1706.85 1041.12C1706.85 1035.74 1706.76 1032.1 1706.56 1030.18C1705.99 1015.78 1702.15 1004.74 1695.04 997.056C1688.13 989.376 1678.63 985.536 1666.53 985.536C1654.44 985.536 1644.84 989.376 1637.73 997.056C1630.63 1004.74 1626.88 1015.78 1626.5 1030.18L1626.21 1041.12L1626.5 1052.06C1626.88 1066.46 1630.63 1077.5 1637.73 1085.18C1644.84 1092.86 1654.44 1096.7 1666.53 1096.7ZM1777.47 1116C1775.55 1116 1773.92 1115.42 1772.58 1114.27C1771.43 1112.93 1770.85 1111.3 1770.85 1109.38V918.144C1770.85 916.224 1771.43 914.688 1772.58 913.536C1773.92 912.192 1775.55 911.52 1777.47 911.52H1791.01C1792.93 911.52 1794.47 912.192 1795.62 913.536C1796.96 914.688 1797.63 916.224 1797.63 918.144V1109.38C1797.63 1111.3 1796.96 1112.93 1795.62 1114.27C1794.47 1115.42 1792.93 1116 1791.01 1116H1777.47ZM1895.31 1118.88C1875.35 1118.88 1860.27 1112.35 1850.1 1099.3C1839.92 1086.24 1834.55 1069.73 1833.97 1049.76L1833.68 1041.12L1833.97 1032.48C1834.55 1012.7 1839.92 996.288 1850.1 983.232C1860.27 969.984 1875.35 963.36 1895.31 963.36C1915.09 963.36 1930.64 970.368 1941.97 984.384V918.144C1941.97 916.224 1942.55 914.688 1943.7 913.536C1945.04 912.192 1946.67 911.52 1948.59 911.52H1962.42C1964.34 911.52 1965.87 912.192 1967.03 913.536C1968.37 914.688 1969.04 916.224 1969.04 918.144V1109.38C1969.04 1111.3 1968.37 1112.93 1967.03 1114.27C1965.87 1115.42 1964.34 1116 1962.42 1116H1949.46C1947.54 1116 1945.91 1115.42 1944.56 1114.27C1943.41 1112.93 1942.83 1111.3 1942.83 1109.38V1097.28C1931.7 1111.68 1915.86 1118.88 1895.31 1118.88ZM1901.36 1095.55C1914.61 1095.55 1924.5 1091.23 1931.03 1082.59C1937.75 1073.76 1941.39 1063.3 1941.97 1051.2C1942.16 1049.09 1942.26 1045.44 1942.26 1040.26C1942.26 1034.88 1942.16 1031.14 1941.97 1029.02C1941.59 1017.7 1937.94 1007.81 1931.03 999.36C1924.11 990.912 1914.23 986.688 1901.36 986.688C1887.73 986.688 1877.75 990.912 1871.41 999.36C1865.27 1007.81 1861.91 1018.94 1861.33 1032.77L1861.04 1041.12C1861.04 1077.41 1874.48 1095.55 1901.36 1095.55Z" fill="white"/>
<path fill-rule="evenodd" clip-rule="evenodd" d="M1183.1 756.859V724.809C1202.11 724.809 1216.85 719.265 1228.86 709.876C1241.14 700.277 1251.38 686.006 1259.92 667.465C1277.17 630.001 1285.8 578.982 1292.36 525.548C1293.98 512.318 1295.48 498.901 1296.97 485.573C1301.36 446.345 1305.65 407.883 1312.81 377.196C1317.62 356.584 1324.1 337.544 1333.95 323.36C1344.26 308.519 1359 298.144 1378.87 298.144C1402.25 298.144 1417.94 312.394 1427.85 330.92C1437.42 348.832 1442.96 372.852 1446.64 398.771C1450.36 425.003 1452.39 454.88 1454.11 485.341C1454.51 492.41 1454.89 499.509 1455.27 506.614C1456.3 525.613 1457.33 544.66 1458.68 563.322C1486.24 566.22 1505.74 577.155 1520.83 592.974C1533.87 606.638 1543.55 624.207 1552.38 640.212C1554.58 644.206 1556.73 648.102 1558.86 651.817C1570.13 671.434 1582.34 689.074 1602.02 702.178C1621.56 715.195 1650.16 724.809 1695.9 724.809V758.862H1526.25C1507.73 758.862 1491.99 752.731 1479.17 741.718C1466.69 730.992 1457.66 716.248 1450.92 699.844C1439.12 671.148 1433.02 634.121 1429.22 595.489C1410.78 597.943 1399.63 605.286 1390.99 614.742C1385.23 621.046 1380.22 628.719 1375.05 637.832C1372.49 642.331 1369.99 647.008 1367.33 651.981L1367.25 652.135C1364.59 657.104 1361.78 662.348 1358.79 667.621C1346.73 688.849 1330.97 711.811 1303.25 729.083C1275.58 746.323 1237.71 756.859 1183.1 756.859ZM1461.49 596.048C1465.21 632.255 1470.87 664.091 1480.56 687.655C1486.17 701.302 1492.72 711.102 1500.06 717.407C1507.06 723.425 1515.39 726.812 1526.25 726.812H1581.27C1557.12 709.797 1542.62 687.881 1531.07 667.78C1528.24 662.85 1525.64 658.151 1523.16 653.676C1514.61 638.237 1507.53 625.462 1497.64 615.096C1489.01 606.047 1478.15 598.961 1461.49 596.048ZM1426.56 563.528C1400.12 566.711 1381.58 577.52 1367.32 593.124C1359.19 602.032 1352.8 612.105 1347.18 622.005C1344.42 626.861 1341.75 631.846 1339.16 636.698L1338.99 637.016C1336.31 642.029 1333.68 646.926 1330.92 651.794C1319.94 671.13 1307.4 688.731 1286.3 701.881C1282.28 704.384 1277.89 706.764 1273.07 708.976C1279.16 700.323 1284.43 690.856 1289.03 680.87C1308.61 638.335 1317.63 582.688 1324.17 529.455C1325.92 515.158 1327.5 501.062 1329.04 487.341C1333.35 448.762 1337.33 413.159 1344.02 384.474C1348.54 365.086 1353.92 350.793 1360.27 341.644C1366.17 333.151 1371.99 330.194 1378.87 330.194C1386.44 330.194 1393.08 333.878 1399.58 346.032C1406.41 358.801 1411.35 378.207 1414.91 403.274C1418.42 428.028 1420.39 456.695 1422.11 487.149C1422.5 494.03 1422.87 501.005 1423.25 508.035C1424.24 526.392 1425.25 545.123 1426.56 563.528Z" fill="#DFDFDF"/>
<path fill-rule="evenodd" clip-rule="evenodd" d="M1202.09 546.531H1183.1V514.481H1202.09V546.531ZM1259.07 546.531H1221.08V514.481H1259.07V546.531ZM1316.05 546.531H1278.06V514.481H1316.05V546.531ZM1373.03 546.531H1335.04V514.481H1373.03V546.531ZM1430 546.531H1392.02V514.481H1430V546.531ZM1486.98 546.531H1449V514.481H1486.98V546.531ZM1543.96 546.531H1505.97V514.481H1543.96V546.531ZM1600.94 546.531H1562.95V514.481H1600.94V546.531ZM1657.91 546.531H1619.93V514.481H1657.91V546.531ZM1695.9 546.531H1676.91V514.481H1695.9V546.531Z" fill="#DFDFDF"/>
</svg>
