<svg width="663" height="402" viewBox="0 0 663 402" fill="none" xmlns="http://www.w3.org/2000/svg">
<g filter="url(#filter0_d)">
<g clip-path="url(#clip0)">
<rect x="4" width="620" height="320" fill="#222222"/>
<rect width="40.3298" height="19.9653" transform="matrix(0.866044 -0.499967 0.866044 0.499967 563.901 336.603)" fill="#9013FE"/>
<rect width="40.3298" height="19.9653" transform="matrix(0.866044 -0.499967 0.866044 0.499967 605.744 312.447)" fill="#9013FE"/>
<rect width="44.7222" height="19.9653" transform="matrix(0.866044 -0.499967 0.866044 0.499967 510.991 337.202)" fill="#9013FE"/>
<rect width="44.7222" height="19.9653" transform="matrix(0.866044 -0.499967 0.866044 0.499967 556.984 310.65)" fill="#9013FE"/>
<rect width="44.7222" height="19.9653" transform="matrix(0.866044 -0.499967 0.866044 0.499967 602.978 284.098)" fill="#9013FE"/>
<rect width="50.3125" height="19.9653" transform="matrix(0.866044 -0.499967 0.866044 0.499967 452.893 340.796)" fill="#9013FE"/>
<rect width="50.3125" height="19.9653" transform="matrix(0.866044 -0.499967 0.866044 0.499967 503.382 311.648)" fill="#9013FE"/>
<rect width="50.3125" height="19.9653" transform="matrix(0.866044 -0.499967 0.866044 0.499967 553.872 282.501)" fill="#9013FE"/>
<rect width="50.3125" height="19.9653" transform="matrix(0.866044 -0.499967 0.866044 0.499967 604.361 253.354)" fill="#9013FE"/>
<rect width="57.1007" height="19.9653" transform="matrix(0.866044 -0.499967 0.866044 0.499967 443.556 316.24)" fill="#9013FE"/>
<rect width="57.1007" height="19.9653" transform="matrix(0.866044 -0.499967 0.866044 0.499967 499.924 283.699)" fill="#9013FE"/>
<rect width="57.1007" height="19.9653" transform="matrix(0.866044 -0.499967 0.866044 0.499967 555.947 251.357)" fill="#9013FE"/>
<rect width="57.1007" height="19.9653" transform="matrix(0.866044 -0.499967 0.866044 0.499967 611.969 219.016)" fill="#9013FE"/>
<rect width="64.6875" height="19.9653" transform="matrix(0.866044 -0.499967 0.866044 0.499967 375.776 325.424)" fill="#9013FE"/>
<rect width="64.6875" height="19.9653" transform="matrix(0.866044 -0.499967 0.866044 0.499967 439.061 288.89)" fill="#9013FE"/>
<rect width="64.6875" height="19.9653" transform="matrix(0.866044 -0.499967 0.866044 0.499967 501.999 252.555)" fill="#9013FE"/>
<rect width="64.6875" height="19.9653" transform="matrix(0.866044 -0.499967 0.866044 0.499967 565.284 216.021)" fill="#9013FE"/>
<rect width="75.0694" height="19.9653" transform="matrix(0.866044 -0.499967 0.866044 0.499967 295.893 341.594)" fill="#9013FE"/>
<rect width="75.0694" height="19.9653" transform="matrix(0.866044 -0.499967 0.866044 0.499967 367.823 300.069)" fill="#9013FE"/>
<rect width="75.0694" height="19.9653" transform="matrix(0.866044 -0.499967 0.866044 0.499967 440.098 258.345)" fill="#9013FE"/>
<rect width="75.0694" height="19.9653" transform="matrix(0.866044 -0.499967 0.866044 0.499967 512.374 216.62)" fill="#9013FE"/>
<rect width="75.0694" height="19.9653" transform="matrix(0.866044 -0.499967 0.866044 0.499967 584.304 175.095)" fill="#9013FE"/>
<rect width="88.6458" height="19.9653" transform="matrix(0.866044 -0.499967 0.866044 0.499967 282.06 319.634)" fill="#9013FE"/>
<rect width="88.6458" height="19.9653" transform="matrix(0.866044 -0.499967 0.866044 0.499967 366.094 271.122)" fill="#9013FE"/>
<rect width="88.6458" height="19.9653" transform="matrix(0.866044 -0.499967 0.866044 0.499967 450.473 222.41)" fill="#9013FE"/>
<rect width="88.6458" height="19.9653" transform="matrix(0.866044 -0.499967 0.866044 0.499967 534.506 173.897)" fill="#9013FE"/>
<rect width="88.6458" height="19.9653" transform="matrix(0.866044 -0.499967 0.866044 0.499967 618.885 125.185)" fill="#9013FE"/>
<rect width="108.611" height="19.9653" transform="matrix(0.866044 -0.499967 0.866044 0.499967 171.745 353.373)" fill="#9013FE"/>
<rect width="108.611" height="19.9653" transform="matrix(0.866044 -0.499967 0.866044 0.499967 272.723 295.078)" fill="#9013FE"/>
<rect width="108.611" height="19.9653" transform="matrix(0.866044 -0.499967 0.866044 0.499967 373.701 236.784)" fill="#9013FE"/>
<rect width="108.611" height="19.9653" transform="matrix(0.866044 -0.499967 0.866044 0.499967 474.68 178.489)" fill="#9013FE"/>
<rect width="108.611" height="19.9653" transform="matrix(0.866044 -0.499967 0.866044 0.499967 575.658 120.194)" fill="#9013FE"/>
<rect width="137.361" height="19.9653" transform="matrix(0.866044 -0.499967 0.866044 0.499967 145.809 338.4)" fill="#C8FFF3"/>
<rect width="137.361" height="19.9653" transform="matrix(0.866044 -0.499967 0.866044 0.499967 272.031 265.532)" fill="#C8FFF3"/>
<rect width="137.361" height="19.9653" transform="matrix(0.866044 -0.499967 0.866044 0.499967 398.6 192.464)" fill="#C8FFF3"/>
<rect width="137.361" height="19.9653" transform="matrix(0.866044 -0.499967 0.866044 0.499967 524.823 119.595)" fill="#C8FFF3"/>
<rect width="186.076" height="19.9653" transform="matrix(0.866044 -0.499967 0.866044 0.499967 119.872 323.427)" fill="#9013FE"/>
<rect width="186.076" height="19.9653" transform="matrix(0.866044 -0.499967 0.866044 0.499967 288.285 226.203)" fill="#9013FE"/>
<rect width="186.076" height="19.9653" transform="matrix(0.866044 -0.499967 0.866044 0.499967 456.697 128.978)" fill="#9013FE"/>
<rect width="283.507" height="19.9653" transform="matrix(0.866044 -0.499967 0.866044 0.499967 93.9364 308.454)" fill="#9013FE"/>
<rect width="283.507" height="19.9653" transform="matrix(0.866044 -0.499967 0.866044 0.499967 346.382 162.717)" fill="#9013FE"/>
<rect width="575" height="19.9653" transform="matrix(0.866044 -0.499967 0.866044 0.499967 68.0001 293.481)" fill="#9013FE"/>
</g>
<path d="M164.538 324.089H173.951V325.671H166.243V329.591H173.371V331.085H166.243V335.462H174.083V337H164.538V324.089ZM177.396 324.089L181.105 335.084L184.771 324.089H186.73L182.02 337H180.165L175.463 324.089H177.396ZM193.955 323.737C196.234 323.737 197.922 324.47 199.018 325.935C199.873 327.077 200.301 328.539 200.301 330.32C200.301 332.248 199.812 333.851 198.833 335.128C197.685 336.628 196.047 337.378 193.92 337.378C191.934 337.378 190.372 336.722 189.235 335.409C188.222 334.144 187.715 332.544 187.715 330.61C187.715 328.864 188.148 327.37 189.016 326.128C190.129 324.534 191.775 323.737 193.955 323.737ZM194.131 335.813C195.672 335.813 196.785 335.263 197.471 334.161C198.162 333.054 198.508 331.782 198.508 330.347C198.508 328.829 198.109 327.607 197.312 326.682C196.521 325.756 195.438 325.293 194.061 325.293C192.725 325.293 191.635 325.753 190.791 326.673C189.947 327.587 189.525 328.938 189.525 330.725C189.525 332.154 189.886 333.361 190.606 334.346C191.333 335.324 192.508 335.813 194.131 335.813Z" fill="#F4F5F7"/>
<g style="mix-blend-mode:difference">
<path d="M183.129 356.211H191.781V385H186.176V365.527C186.176 364.967 186.182 364.186 186.195 363.184C186.208 362.168 186.215 361.387 186.215 360.84L180.766 385H174.926L169.516 360.84C169.516 361.387 169.522 362.168 169.535 363.184C169.548 364.186 169.555 364.967 169.555 365.527V385H163.949V356.211H172.699L177.934 378.848L183.129 356.211ZM208.656 374.648C208.305 374.87 207.947 375.052 207.582 375.195C207.23 375.326 206.742 375.449 206.117 375.566L204.867 375.801C203.695 376.009 202.855 376.263 202.348 376.562C201.488 377.07 201.059 377.858 201.059 378.926C201.059 379.876 201.319 380.566 201.84 380.996C202.374 381.413 203.018 381.621 203.773 381.621C204.971 381.621 206.072 381.27 207.074 380.566C208.09 379.863 208.617 378.581 208.656 376.719V374.648ZM205.277 372.051C206.306 371.921 207.042 371.758 207.484 371.562C208.279 371.224 208.676 370.697 208.676 369.98C208.676 369.108 208.37 368.509 207.758 368.184C207.159 367.845 206.273 367.676 205.102 367.676C203.786 367.676 202.855 368.001 202.309 368.652C201.918 369.134 201.658 369.785 201.527 370.605H196.156C196.273 368.743 196.794 367.214 197.719 366.016C199.19 364.141 201.716 363.203 205.297 363.203C207.628 363.203 209.698 363.665 211.508 364.59C213.318 365.514 214.223 367.259 214.223 369.824V379.59C214.223 380.267 214.236 381.087 214.262 382.051C214.301 382.78 214.411 383.275 214.594 383.535C214.776 383.796 215.049 384.01 215.414 384.18V385H209.359C209.19 384.57 209.073 384.167 209.008 383.789C208.943 383.411 208.891 382.982 208.852 382.5C208.083 383.333 207.198 384.043 206.195 384.629C204.997 385.319 203.643 385.664 202.133 385.664C200.206 385.664 198.611 385.117 197.348 384.023C196.098 382.917 195.473 381.354 195.473 379.336C195.473 376.719 196.482 374.824 198.5 373.652C199.607 373.014 201.234 372.559 203.383 372.285L205.277 372.051ZM230.98 363.203C233.181 363.203 234.978 363.783 236.371 364.941C237.777 366.087 238.48 367.995 238.48 370.664V385H232.777V372.051C232.777 370.931 232.628 370.072 232.328 369.473C231.781 368.379 230.74 367.832 229.203 367.832C227.315 367.832 226.02 368.633 225.316 370.234C224.952 371.081 224.77 372.161 224.77 373.477V385H219.223V363.75H224.594V366.855C225.31 365.762 225.987 364.974 226.625 364.492C227.771 363.633 229.223 363.203 230.98 363.203ZM249.359 361.172H243.715V356.035H249.359V361.172ZM243.715 363.711H249.359V385H243.715V363.711ZM262.621 355.918C262.973 355.918 263.292 355.931 263.578 355.957C263.865 355.97 264.255 355.996 264.75 356.035V360.566C264.438 360.527 263.91 360.501 263.168 360.488C262.439 360.462 261.931 360.625 261.645 360.977C261.371 361.315 261.234 361.693 261.234 362.109C261.234 362.526 261.234 363.125 261.234 363.906H264.887V367.832H261.234V385H255.688V367.832H252.582V363.906H255.629V362.539C255.629 360.26 256.013 358.691 256.781 357.832C257.589 356.556 259.535 355.918 262.621 355.918ZM277.641 381.074C279.268 381.074 280.518 380.495 281.391 379.336C282.263 378.177 282.699 376.53 282.699 374.395C282.699 372.259 282.263 370.618 281.391 369.473C280.518 368.314 279.268 367.734 277.641 367.734C276.013 367.734 274.757 368.314 273.871 369.473C272.999 370.618 272.562 372.259 272.562 374.395C272.562 376.53 272.999 378.177 273.871 379.336C274.757 380.495 276.013 381.074 277.641 381.074ZM288.539 374.395C288.539 377.52 287.641 380.195 285.844 382.422C284.047 384.635 281.319 385.742 277.66 385.742C274.001 385.742 271.273 384.635 269.477 382.422C267.68 380.195 266.781 377.52 266.781 374.395C266.781 371.322 267.68 368.659 269.477 366.406C271.273 364.154 274.001 363.027 277.66 363.027C281.319 363.027 284.047 364.154 285.844 366.406C287.641 368.659 288.539 371.322 288.539 374.395ZM298.227 385H292.66V356.211H298.227V385ZM311.527 363.203C312.816 363.203 313.962 363.49 314.965 364.062C315.967 364.622 316.781 365.404 317.406 366.406V356.25H323.051V385H317.641V382.051C316.846 383.314 315.941 384.232 314.926 384.805C313.91 385.378 312.647 385.664 311.137 385.664C308.65 385.664 306.553 384.661 304.848 382.656C303.155 380.638 302.309 378.053 302.309 374.902C302.309 371.27 303.142 368.411 304.809 366.328C306.488 364.245 308.728 363.203 311.527 363.203ZM312.738 380.977C314.314 380.977 315.512 380.391 316.332 379.219C317.152 378.047 317.562 376.53 317.562 374.668C317.562 372.064 316.905 370.202 315.59 369.082C314.783 368.405 313.845 368.066 312.777 368.066C311.15 368.066 309.952 368.685 309.184 369.922C308.428 371.146 308.051 372.669 308.051 374.492C308.051 376.458 308.435 378.034 309.203 379.219C309.984 380.391 311.163 380.977 312.738 380.977ZM340.688 363.477C341.716 361.081 343.22 358.503 345.199 355.742H349.398L348.207 357.93C346.566 360.938 345.427 364.089 344.789 367.383C344.372 369.544 344.164 371.901 344.164 374.453C344.164 378.438 344.743 382.103 345.902 385.449C346.579 387.428 347.777 389.967 349.496 393.066H345.375L343.988 391.172C343.09 390.026 342.133 388.32 341.117 386.055C339.307 382.005 338.402 378.021 338.402 374.102C338.402 370.534 339.164 366.992 340.688 363.477ZM369.242 365.371C369.242 363.874 368.845 362.806 368.051 362.168C367.27 361.53 366.169 361.211 364.75 361.211H359.145V369.688H364.75C366.169 369.688 367.27 369.342 368.051 368.652C368.845 367.962 369.242 366.868 369.242 365.371ZM375.199 365.332C375.199 368.73 374.34 371.133 372.621 372.539C370.902 373.945 368.448 374.648 365.258 374.648H359.145V385H353.168V356.211H365.707C368.598 356.211 370.902 356.953 372.621 358.438C374.34 359.922 375.199 362.22 375.199 365.332ZM390.824 363.203C390.928 363.203 391.013 363.21 391.078 363.223C391.156 363.223 391.319 363.229 391.566 363.242V368.945C391.215 368.906 390.902 368.88 390.629 368.867C390.355 368.854 390.134 368.848 389.965 368.848C387.725 368.848 386.221 369.577 385.453 371.035C385.023 371.855 384.809 373.118 384.809 374.824V385H379.203V363.711H384.516V367.422C385.375 366.003 386.124 365.033 386.762 364.512C387.803 363.639 389.158 363.203 390.824 363.203ZM404.398 381.074C406.026 381.074 407.276 380.495 408.148 379.336C409.021 378.177 409.457 376.53 409.457 374.395C409.457 372.259 409.021 370.618 408.148 369.473C407.276 368.314 406.026 367.734 404.398 367.734C402.771 367.734 401.514 368.314 400.629 369.473C399.757 370.618 399.32 372.259 399.32 374.395C399.32 376.53 399.757 378.177 400.629 379.336C401.514 380.495 402.771 381.074 404.398 381.074ZM415.297 374.395C415.297 377.52 414.398 380.195 412.602 382.422C410.805 384.635 408.077 385.742 404.418 385.742C400.759 385.742 398.031 384.635 396.234 382.422C394.438 380.195 393.539 377.52 393.539 374.395C393.539 371.322 394.438 368.659 396.234 366.406C398.031 364.154 400.759 363.027 404.418 363.027C408.077 363.027 410.805 364.154 412.602 366.406C414.398 368.659 415.297 371.322 415.297 374.395ZM417.113 367.871V363.906H420.082V357.969H425.59V363.906H429.047V367.871H425.59V379.121C425.59 379.993 425.701 380.54 425.922 380.762C426.143 380.97 426.82 381.074 427.953 381.074C428.122 381.074 428.298 381.074 428.48 381.074C428.676 381.061 428.865 381.048 429.047 381.035V385.195L426.41 385.293C423.78 385.384 421.983 384.928 421.02 383.926C420.395 383.288 420.082 382.305 420.082 380.977V367.871H417.113ZM442.172 381.074C443.799 381.074 445.049 380.495 445.922 379.336C446.794 378.177 447.23 376.53 447.23 374.395C447.23 372.259 446.794 370.618 445.922 369.473C445.049 368.314 443.799 367.734 442.172 367.734C440.544 367.734 439.288 368.314 438.402 369.473C437.53 370.618 437.094 372.259 437.094 374.395C437.094 376.53 437.53 378.177 438.402 379.336C439.288 380.495 440.544 381.074 442.172 381.074ZM453.07 374.395C453.07 377.52 452.172 380.195 450.375 382.422C448.578 384.635 445.85 385.742 442.191 385.742C438.533 385.742 435.805 384.635 434.008 382.422C432.211 380.195 431.312 377.52 431.312 374.395C431.312 371.322 432.211 368.659 434.008 366.406C435.805 364.154 438.533 363.027 442.191 363.027C445.85 363.027 448.578 364.154 450.375 366.406C452.172 368.659 453.07 371.322 453.07 374.395ZM469.789 371.348C469.685 370.553 469.418 369.837 468.988 369.199C468.363 368.34 467.393 367.91 466.078 367.91C464.203 367.91 462.921 368.841 462.23 370.703C461.866 371.693 461.684 373.008 461.684 374.648C461.684 376.211 461.866 377.467 462.23 378.418C462.895 380.189 464.145 381.074 465.98 381.074C467.283 381.074 468.207 380.723 468.754 380.02C469.301 379.316 469.633 378.405 469.75 377.285H475.434C475.303 378.978 474.691 380.579 473.598 382.09C471.853 384.525 469.268 385.742 465.844 385.742C462.419 385.742 459.9 384.727 458.285 382.695C456.671 380.664 455.863 378.027 455.863 374.785C455.863 371.126 456.755 368.281 458.539 366.25C460.323 364.219 462.784 363.203 465.922 363.203C468.591 363.203 470.772 363.802 472.465 365C474.171 366.198 475.18 368.314 475.492 371.348H469.789ZM488.891 381.074C490.518 381.074 491.768 380.495 492.641 379.336C493.513 378.177 493.949 376.53 493.949 374.395C493.949 372.259 493.513 370.618 492.641 369.473C491.768 368.314 490.518 367.734 488.891 367.734C487.263 367.734 486.007 368.314 485.121 369.473C484.249 370.618 483.812 372.259 483.812 374.395C483.812 376.53 484.249 378.177 485.121 379.336C486.007 380.495 487.263 381.074 488.891 381.074ZM499.789 374.395C499.789 377.52 498.891 380.195 497.094 382.422C495.297 384.635 492.569 385.742 488.91 385.742C485.251 385.742 482.523 384.635 480.727 382.422C478.93 380.195 478.031 377.52 478.031 374.395C478.031 371.322 478.93 368.659 480.727 366.406C482.523 364.154 485.251 363.027 488.91 363.027C492.569 363.027 495.297 364.154 497.094 366.406C498.891 368.659 499.789 371.322 499.789 374.395ZM509.477 385H503.91V356.211H509.477V385ZM517.035 355.742C519.014 358.503 520.518 361.081 521.547 363.477C523.07 366.992 523.832 370.534 523.832 374.102C523.832 378.021 522.927 382.005 521.117 386.055C520.102 388.32 519.145 390.026 518.246 391.172L516.859 393.066H512.738C514.457 389.967 515.655 387.428 516.332 385.449C517.491 382.103 518.07 378.438 518.07 374.453C518.07 371.901 517.862 369.544 517.445 367.383C516.807 364.089 515.668 360.938 514.027 357.93L512.836 355.742H517.035Z" fill="#F4F5F7"/>
</g>
</g>
<defs>
<filter id="filter0_d" x="0" y="0" width="628" height="401.066" filterUnits="userSpaceOnUse" color-interpolation-filters="sRGB">
<feFlood flood-opacity="0" result="BackgroundImageFix"/>
<feColorMatrix in="SourceAlpha" type="matrix" values="0 0 0 0 0 0 0 0 0 0 0 0 0 0 0 0 0 0 127 0"/>
<feOffset dy="4"/>
<feGaussianBlur stdDeviation="2"/>
<feColorMatrix type="matrix" values="0 0 0 0 0 0 0 0 0 0 0 0 0 0 0 0 0 0 0.25 0"/>
<feBlend mode="normal" in2="BackgroundImageFix" result="effect1_dropShadow"/>
<feBlend mode="normal" in="SourceGraphic" in2="effect1_dropShadow" result="shape"/>
</filter>
<clipPath id="clip0">
<rect width="620" height="320" fill="white" transform="translate(4)"/>
</clipPath>
</defs>
</svg>
